<svg width="60" height="60" viewBox="0 0 60 60" fill="none" xmlns="http://www.w3.org/2000/svg">
<circle cx="30" cy="30" r="29" fill="#FCFBFA" stroke="#7E3AF2" stroke-width="2"/>
<path fill-rule="evenodd" clip-rule="evenodd" d="M37.952 19.651C38.0447 19.721 38.1198 19.8115 38.1715 19.9154C38.2232 20.0194 38.2501 20.1339 38.25 20.25V34.303C38.2499 34.9548 38.0374 35.5889 37.6448 36.1093C37.2522 36.6296 36.7008 37.008 36.074 37.187L34.754 37.564C34.4302 37.6612 34.0903 37.6931 33.754 37.6579C33.4178 37.6226 33.0918 37.5209 32.7952 37.3587C32.4986 37.1965 32.2371 36.977 32.026 36.7129C31.8149 36.4488 31.6583 36.1454 31.5654 35.8203C31.4725 35.4952 31.4451 35.1549 31.4847 34.8192C31.5244 34.4834 31.6304 34.1589 31.7965 33.8644C31.9626 33.5699 32.1856 33.3114 32.4525 33.1038C32.7193 32.8961 33.0247 32.7436 33.351 32.655L35.662 31.995C35.9754 31.9055 36.2511 31.7163 36.4474 31.4561C36.6437 31.196 36.75 30.8789 36.75 30.553V24.994L27.75 27.566V37.303C27.7499 37.9548 27.5374 38.5889 27.1448 39.1093C26.7522 39.6296 26.2008 40.008 25.574 40.187L24.254 40.564C23.9298 40.6625 23.5892 40.6955 23.2521 40.661C22.915 40.6265 22.5881 40.5253 22.2905 40.3632C21.9929 40.2011 21.7306 39.9814 21.5188 39.7168C21.307 39.4523 21.15 39.1482 21.057 38.8224C20.9639 38.4965 20.9366 38.1554 20.9768 37.8189C21.0169 37.4824 21.1236 37.1573 21.2907 36.8625C21.4578 36.5677 21.6819 36.3091 21.95 36.1018C22.218 35.8944 22.5247 35.7426 22.852 35.655L25.162 34.995C25.4754 34.9055 25.7511 34.7163 25.9474 34.4561C26.1437 34.196 26.25 33.8789 26.25 33.553V27.017V23.25C26.2501 23.087 26.3032 22.9285 26.4013 22.7984C26.4995 22.6683 26.6373 22.5738 26.794 22.529L37.294 19.529C37.4057 19.497 37.5232 19.4914 37.6374 19.5125C37.7516 19.5337 37.8593 19.5811 37.952 19.651Z" fill="#7E3AF2"/>
</svg>
