<svg width="60" height="60" viewBox="0 0 60 60" fill="none" xmlns="http://www.w3.org/2000/svg">
<circle cx="30" cy="30" r="29" fill="#FCFBFA" stroke="#7E3AF2" stroke-width="2"/>
<path fill-rule="evenodd" clip-rule="evenodd" d="M38.599 19.5C38.223 19.5 37.856 19.611 37.544 19.82L32.464 23.205C31.1893 24.0551 30.0236 25.0582 28.993 26.192C31.1099 27.1871 32.8129 28.8901 33.808 31.007C34.9418 29.9761 35.945 28.8101 36.795 27.535L40.181 22.456C40.3717 22.1696 40.4811 21.8369 40.4976 21.4932C40.5141 21.1496 40.437 20.8079 40.2747 20.5045C40.1123 20.2012 39.8708 19.9476 39.5757 19.7707C39.2806 19.5938 38.943 19.5002 38.599 19.5ZM30.299 33.525C30.9545 33.1609 31.5877 32.7579 32.195 32.318C31.7914 31.2971 31.1826 30.3699 30.4064 29.5936C29.6301 28.8174 28.7029 28.2086 27.682 27.805C27.2421 28.412 26.8391 29.0448 26.475 29.7L26.197 30.2C27.0531 30.4463 27.8327 30.9061 28.4625 31.5361C29.0924 32.1661 29.5519 32.9458 29.798 33.802L30.3 33.524L30.299 33.525ZM24.75 31.5C23.7554 31.5 22.8016 31.8951 22.0983 32.5983C21.3951 33.3016 21 34.2554 21 35.25C21.0001 35.4555 20.9579 35.6589 20.8761 35.8474C20.7943 36.036 20.6746 36.2057 20.5245 36.3461C20.3743 36.4864 20.197 36.5944 20.0034 36.6634C19.8098 36.7324 19.6041 36.7608 19.399 36.747C19.2634 36.7379 19.1279 36.7658 19.0069 36.8277C18.886 36.8896 18.7841 36.9833 18.7122 37.0986C18.6403 37.2139 18.6011 37.3466 18.5988 37.4825C18.5965 37.6183 18.6311 37.7523 18.699 37.87C19.2759 38.8722 20.1675 39.6558 21.2354 40.0994C22.3034 40.5429 23.4878 40.6214 24.6049 40.3227C25.7221 40.0241 26.7093 39.3649 27.4135 38.4477C28.1176 37.5304 28.4992 36.4064 28.499 35.25C28.499 34.7575 28.402 34.2699 28.2135 33.8149C28.0251 33.36 27.7489 32.9466 27.4006 32.5983C27.0524 32.2501 26.639 31.9739 26.1841 31.7855C25.7291 31.597 25.2415 31.5 24.749 31.5H24.75Z" fill="#7E3AF2"/>
</svg>
