<svg width="60" height="60" viewBox="0 0 60 60" fill="none" xmlns="http://www.w3.org/2000/svg">
<circle cx="30" cy="30" r="29" fill="#FCFBFA" stroke="#7E3AF2" stroke-width="2"/>
<path fill-rule="evenodd" clip-rule="evenodd" d="M19.5 24C19.5 23.4033 19.7371 22.831 20.159 22.409C20.581 21.9871 21.1533 21.75 21.75 21.75H38.25C38.8467 21.75 39.419 21.9871 39.841 22.409C40.2629 22.831 40.5 23.4033 40.5 24V36C40.5 36.5967 40.2629 37.169 39.841 37.591C39.419 38.0129 38.8467 38.25 38.25 38.25H21.75C21.1533 38.25 20.581 38.0129 20.159 37.591C19.7371 37.169 19.5 36.5967 19.5 36V24ZM21 34.06V36C21 36.414 21.336 36.75 21.75 36.75H38.25C38.4489 36.75 38.6397 36.671 38.7803 36.5303C38.921 36.3897 39 36.1989 39 36V34.06L36.31 31.371C36.0287 31.0901 35.6475 30.9323 35.25 30.9323C34.8525 30.9323 34.4713 31.0901 34.19 31.371L33.31 32.25L34.28 33.22C34.3537 33.2887 34.4128 33.3715 34.4538 33.4635C34.4948 33.5555 34.5168 33.6548 34.5186 33.7555C34.5204 33.8562 34.5018 33.9562 34.4641 34.0496C34.4264 34.143 34.3703 34.2278 34.299 34.299C34.2278 34.3703 34.143 34.4264 34.0496 34.4641C33.9562 34.5018 33.8562 34.5204 33.7555 34.5186C33.6548 34.5168 33.5555 34.4948 33.4635 34.4538C33.3715 34.4128 33.2887 34.3537 33.22 34.28L28.06 29.121C27.7787 28.8401 27.3975 28.6823 27 28.6823C26.6025 28.6823 26.2213 28.8401 25.94 29.121L21 34.061V34.06ZM31.125 26.25C31.125 25.9516 31.2435 25.6655 31.4545 25.4545C31.6655 25.2435 31.9516 25.125 32.25 25.125C32.5484 25.125 32.8345 25.2435 33.0455 25.4545C33.2565 25.6655 33.375 25.9516 33.375 26.25C33.375 26.5484 33.2565 26.8345 33.0455 27.0455C32.8345 27.2565 32.5484 27.375 32.25 27.375C31.9516 27.375 31.6655 27.2565 31.4545 27.0455C31.2435 26.8345 31.125 26.5484 31.125 26.25Z" fill="#7E3AF2"/>
</svg>
